<svg width="180" height="38" viewBox="0 0 180 38" fill="none" xmlns="http://www.w3.org/2000/svg">
<path d="M55.9972 5.60717V8.74066H52.8713V5.60717H43.4785V2.48132L59.1307 2.48132V5.60717H55.9972ZM46.612 11.8665H49.7379V15H59.1307V18.1335H43.4785V15H46.612V11.8665ZM52.8713 8.74066V11.8665H49.7379V8.74066H52.8713ZM74.7829 2.48132V5.60717H65.3977V2.48132L74.7829 2.48132ZM74.7829 5.60717H77.9164V18.1335H74.7829V15H65.3977V18.1335H62.2642V5.60717H65.3977V11.8665H74.7829V5.60717ZM90.4427 5.60717V15H96.702V18.1335H81.0498V15H87.3092V5.60717H81.0498V2.48132L96.702 2.48132V5.60717L90.4427 5.60717ZM106.08 14.9694V8.72537H109.198V14.9694H106.08ZM112.369 2.48132L115.488 2.48132V18.1335H112.369V8.72537H109.198V5.59188H112.369V2.48132ZM102.954 5.59188H106.08V8.72537H102.954V18.1335H99.8355V2.48132H102.954V5.59188ZM55.9972 21.4813H59.1307V37.1335H55.9972V34H52.8713V30.8665H55.9972V21.4813ZM46.612 24.6072H49.7379V27.7407H46.612V37.1335H43.4785V21.4813H46.612V24.6072ZM49.7379 27.7407H52.8713V30.8665H49.7379V27.7407ZM74.7829 21.4813V24.6072H65.3977V21.4813H74.7829ZM74.7829 24.6072H77.9164V37.1335H74.7829V34H65.3977V37.1335H62.2642V24.6072H65.3977V30.8665H74.7829V24.6072ZM84.1833 27.7407H90.4427V30.8665H84.1833V37.1335H81.0498V21.4813H84.1833V27.7407ZM93.5685 34H90.4427V30.8665H93.5685V34ZM96.702 37.1335H93.5685V34H96.702V37.1335ZM96.702 21.4813V24.6072H93.5685V21.4813H96.702ZM93.5685 24.6072V27.7407H90.4427V24.6072H93.5685ZM112.354 21.4813V24.6072L102.969 24.6072V21.4813L112.354 21.4813ZM112.354 24.6072H115.488V37.1335H112.354V34H102.969V37.1335H99.8355V24.6072H102.969V30.8665L112.354 30.8665V24.6072ZM131.14 24.6072H134.273V27.7407H131.14V24.6072ZM134.273 37.1335H131.14V34H134.273V37.1335ZM128.014 30.8665H121.755V37.1335H118.621V21.4813H131.14V24.6072H121.755V27.7407H131.14V34H128.014V30.8665ZM137.407 21.4813H153.059V24.6072H146.8V37.1335H143.666V24.6072H137.407V21.4813ZM156.193 21.4813H159.326V27.7407H156.193V21.4813ZM168.711 21.4813H171.845V27.7407H168.711V21.4813ZM159.326 30.8665V27.7407H168.711V30.8665H165.585V37.1335H162.452V30.8665H159.326Z" fill="#BAFF24"/>
<mask id="path-2-inside-1_0_591" fill="white">
<path fill-rule="evenodd" clip-rule="evenodd" d="M7.07129 2.60889H27.2759V5.63965L31.3174 5.63965V9.68043H34.3478V29.885H31.3174V33.9261H27.2759V36.9567H7.07129V33.9261H3.03094L3.03094 29.885H0V9.68043H3.03094L3.03094 5.63965L7.07129 5.63965V2.60889Z"/>
</mask>
<path fill-rule="evenodd" clip-rule="evenodd" d="M7.07129 2.60889H27.2759V5.63965L31.3174 5.63965V9.68043H34.3478V29.885H31.3174V33.9261H27.2759V36.9567H7.07129V33.9261H3.03094L3.03094 29.885H0V9.68043H3.03094L3.03094 5.63965L7.07129 5.63965V2.60889Z" fill="#141718"/>
<path d="M27.2759 2.60889H32.0585V-2.17372H27.2759V2.60889ZM7.07129 2.60889V-2.17372H2.28868V2.60889H7.07129ZM27.2759 5.63965H22.4933V10.4223H27.2759V5.63965ZM31.3174 5.63965H36.1V0.85704L31.3174 0.857039V5.63965ZM31.3174 9.68043H26.5348V14.463H31.3174V9.68043ZM34.3478 9.68043H39.1304V4.89782H34.3478V9.68043ZM34.3478 29.885V34.6676H39.1304V29.885H34.3478ZM31.3174 29.885V25.1024H26.5348V29.885H31.3174ZM31.3174 33.9261V38.7087H36.1V33.9261H31.3174ZM27.2759 33.9261V29.1435H22.4933V33.9261H27.2759ZM27.2759 36.9567V41.7393H32.0585V36.9567H27.2759ZM7.07129 36.9567H2.28868V41.7393H7.07129V36.9567ZM7.07129 33.9261H11.8539V29.1435H7.07129V33.9261ZM3.03094 33.9261H-1.75167L-1.75167 38.7087H3.03094V33.9261ZM3.03094 29.885H7.81355L7.81355 25.1024H3.03094V29.885ZM0 29.885H-4.78261V34.6676H0V29.885ZM0 9.68043V4.89782H-4.78261V9.68043H0ZM3.03094 9.68043V14.463H7.81355V9.68043L3.03094 9.68043ZM3.03094 5.63965L3.03094 0.857038L-1.75167 0.857038L-1.75167 5.63965L3.03094 5.63965ZM7.07129 5.63965L7.07129 10.4223L11.8539 10.4223V5.63965H7.07129ZM27.2759 -2.17372H7.07129V7.3915H27.2759V-2.17372ZM32.0585 5.63965V2.60889H22.4933V5.63965H32.0585ZM27.2759 10.4223L31.3174 10.4223V0.857039L27.2759 0.857039V10.4223ZM26.5348 5.63965V9.68043H36.1V5.63965H26.5348ZM34.3478 4.89782H31.3174V14.463H34.3478V4.89782ZM39.1304 29.885V9.68043H29.5652V29.885H39.1304ZM31.3174 34.6676H34.3478V25.1024H31.3174V34.6676ZM26.5348 29.885V33.9261H36.1V29.885H26.5348ZM31.3174 29.1435H27.2759V38.7087H31.3174V29.1435ZM32.0585 36.9567V33.9261H22.4933V36.9567H32.0585ZM7.07129 41.7393H27.2759V32.1741H7.07129V41.7393ZM2.28868 33.9261V36.9567H11.8539V33.9261H2.28868ZM7.07129 29.1435H3.03094V38.7087H7.07129V29.1435ZM7.81355 33.9261L7.81355 29.885H-1.75167L-1.75167 33.9261H7.81355ZM0 34.6676H3.03094V25.1024H0V34.6676ZM-4.78261 9.68043V29.885H4.78261V9.68043H-4.78261ZM3.03094 4.89782H0V14.463H3.03094V4.89782ZM7.81355 9.68043L7.81355 5.63965L-1.75167 5.63965L-1.75167 9.68043L7.81355 9.68043ZM3.03094 10.4223L7.07129 10.4223L7.07129 0.857038L3.03094 0.857038L3.03094 10.4223ZM2.28868 2.60889V5.63965H11.8539V2.60889H2.28868Z" fill="#BAFF24" mask="url(#path-2-inside-1_0_591)"/>
</svg>
